<svg id="图层_1" data-name="图层 1" xmlns="http://www.w3.org/2000/svg" viewBox="0 0 32 32"><defs><style>.cls-1{fill:#d93a4a;}.cls-2{fill:#cd3b48;}</style></defs><title>发起人反馈</title><path class="cls-1" d="M16,30.4A14.4,14.4,0,1,1,30.4,16,14.41,14.41,0,0,1,16,30.4ZM16,3.6A12.4,12.4,0,1,0,28.4,16,12.41,12.41,0,0,0,16,3.6Z"/><circle class="cls-1" cx="11.43" cy="14.2" r="1.24"/><circle class="cls-1" cx="20.26" cy="14.2" r="1.24"/><path class="cls-2" d="M16,23.12a7.62,7.62,0,0,1-6.57-3.8,1,1,0,0,1,1.73-1,5.59,5.59,0,0,0,9.69,0,1,1,0,1,1,1.73,1A7.62,7.62,0,0,1,16,23.12Z"/></svg>